# AST/ASF file generated using VICON BodyLanguage
# -----------------------------------------------
:version 1.10
:name VICON
:units
  mass 1.0
  length 0.45
  angle deg
:documentation
   .ast/.asf automatically generated from VICON data using
   VICON BodyBuilder and BodyLanguage model FoxedUp or BRILLIANT.MOD
:root
   order TX TY TZ RX RY RZ
   axis XYZ
   position 0 0 0  
   orientation 0 0 0 
:bonedata
  begin
     id 1 
     name lhipjoint
     direction 0.822369 -0.411937 0.392449 
     length 3.8167 
     axis 0 0 0  XYZ
  end
  begin
     id 2 
     name lfemur
     direction 0.34202 -0.939693 0  
     length 6.16791  
     axis 0 0 20  XYZ
    dof rx ry rz
    limits (-160.0 20.0)
           (-70.0 70.0)
           (-60.0 70.0)
  end
  begin
     id 3 
     name ltibia
     direction 0.34202 -0.939693 0   
     length 7.07101   
     axis 0 0 20   XYZ
    dof rx
    limits (-10.0 170.0)
  end
  begin
     id 4 
     name lfoot
     direction 0.028254 -0.0776273 0.996582   
     length 1.66799   
     axis -90 7.62852e-016 20   XYZ
    dof rx rz
    limits (-45.0 90.0)
           (-70.0 20.0)
  end
  begin
     id 5 
     name ltoes
     direction 1.53483e-011 -4.21688e-011 1   
     length 0.851674   
     axis -90 7.62852e-016 20   XYZ
    dof rx
    limits (-90.0 20.0)
  end
  begin
     id 6 
     name rhipjoint
     direction -0.822466 -0.411836 0.392353   
     length 3.81764  
     axis 0 0 0  XYZ 
  end
  begin
     id 7 
     name rfemur
     direction -0.34202 -0.939693 0   
     length 6.28636   
     axis 0 0 -20   XYZ
    dof rx ry rz
    limits (-160.0 20.0)
           (-70.0 70.0)
           (-70.0 60.0)
  end
  begin
     id 8 
     name rtibia
     direction -0.34202 -0.939693 0   
     length 6.85621   
     axis 0 0 -20   XYZ
    dof rx
    limits (-10.0 170.0)
 end
 begin
     id 9 
     name rfoot
     direction -0.0553036 -0.151945 0.98684   
     length 1.57293  
     axis -90 -7.62852e-016 -20   XYZ
    dof rx rz
    limits (-45.0 90.0)
           (-20.0 70.0)
  end
  begin
     id 10 
     name rtoes
     direction -1.53592e-011 -4.21964e-011 1   
     length 0.802812   
     axis -90 -7.62852e-016 -20   XYZ
    dof rx
    limits (-90.0 20.0)
  end
  begin
     id 11 
     name lowerback
     direction 0.00654913 0.996475 -0.0836396   
     length 1.97212   
     axis 0 0 0   XYZ
    dof rx ry rz
    limits (-20.0 45.0)
           (-30.0 30.0)
           (-30.0 30.0)
  end
  begin
     id 12 
     name upperback
     direction 0.0111875 0.994527 0.103877   
     length 1.89704   
     axis 0 0 0   XYZ
    dof rx ry rz
    limits (-20.0 45.0)
           (-30.0 30.0)
           (-30.0 30.0)
  end
  begin
     id 13 
     name thorax
     direction 0.00473652 0.989004 0.147814   
     length 1.94516   
     axis 0 0 0   XYZ
    dof rx ry rz
    limits (-20.0 45.0)
           (-30.0 30.0)
           (-30.0 30.0)
  end
  begin
     id 14 
     name lowerneck
     direction -0.00925808 0.999011 0.0434791   
     length 1.81771   
     axis 0 0 0   XYZ
    dof rx ry rz
    limits (-20.0 45.0)
           (-30.0 30.0)
           (-30.0 30.0)
  end
  begin
     id 15 
     name upperneck
     direction 0.00451595 0.964412 -0.264365   
     length 1.80434   
     axis 0 0 0   XYZ
    dof rx ry rz
    limits (-20.0 45.0)
           (-30.0 30.0)
           (-30.0 30.0)
  end
  begin
     id 16
     name head
     direction -0.00110849 0.995756 -0.0920241  
     length 1.84006  
     axis 0 0 0   XYZ
    dof rx ry rz
    limits (-20.0 45.0)
           (-30.0 30.0)
           (-30.0 30.0)
  end
  begin
     id 17 
     name lclavicle
     direction 0.921253 0.385213 0.0538957  
     length 3.67415  
     axis 0 0 0   XYZ
    dof ry rz
    limits (-20.0 10.0)
           (0.0 20.0)
  end
  begin
     id 18 
     name lhumerus
     direction 1 -4.48961e-011 6.73441e-028   
     length 4.32712   
     axis 180 -30 -90   XYZ
    dof rx ry rz
    limits (-60.0 90.0)
           (-90.0 90.0)
           (-90.0 90.0)
  end
  begin
     id 19
     name lradius
     direction 1 -4.48985e-011 -9.53507e-028   
     length 3.28587   
     axis 180 -30 -90   XYZ
    dof rx
    limits (-10.0 170.0)
  end
  begin
     id 20
     name lwrist
     direction 1 -4.48951e-011 -4.67472e-027   
     length 1.64293   
     axis 1.65735e-015 90 90   XYZ
    dof ry
    limits (-180.0 0.0)
 end
  begin
     id 21 
     name lhand
     direction 1 -4.48946e-011 -9.34945e-027   
     length 0.433158   
     axis 5.96574e-015 90 90   XYZ
    dof rx rz
    limits (-90.0 90.0)
           (-45.0 45.0)
  end
  begin
     id 22 
     name lfingers
     direction 1 -4.48882e-011 -1.86989e-026   
     length 0.349224   
     axis 1.19315e-014 90 90   XYZ
    dof rx
    limits (0.0 90.0)
  end
  begin
     id 23
     name lthumb
     direction 0.707107 -6.3493e-011 0.707107   
     length 0.501417   
     axis -90 45 2.85299e-015   XYZ
    dof rx rz
    limits (-45.0 45.0)
           (-45.0 45.0)
  end
  begin
     id 24 
     name rclavicle
     direction -0.884378 0.46502 -0.0403866   
     length 3.50218  
     axis 0 0 0   XYZ 
    dof ry rz
    limits (-10.0 20.0)
           (-20.0 0.0)
  end
  begin
     id 25 
     name rhumerus
     direction -1 -4.48964e-011 1.58188e-027  
     length 4.29104   
     axis 180 30 90   XYZ
    dof rx ry rz
    limits (-90.0 60.0)
           (-90.0 90.0)
           (-90.0 90.0)
  end
  begin
     id 26 
     name rradius
     direction -1 -4.48978e-011 -1.9722e-027   
     length 3.2272   
     axis 180 30 90   XYZ
    dof rx
    limits (-10.0 170.0)
  end
  begin
     id 27 
     name rwrist
     direction -1 -4.48969e-011 -4.67472e-027   
     length 1.6136   
     axis 1.65735e-015 -90 -90   XYZ
    dof ry
    limits (-180.0 0.0)
  end
  begin
     id 28
     name rhand
     direction -1 -4.48846e-011 -9.34945e-027   
     length 0.543623   
     axis 5.96574e-015 -90 -90   XYZ
    dof rx rz
    limits (-90.0 90.0)
           (-45.0 45.0)
  end
  begin
     id 29
     name rfingers
     direction -1 -4.49074e-011 -1.86989e-026   
     length 0.438283   
     axis 1.19315e-014 -90 -90   XYZ
    dof rx
    limits (0.0 90.0)
  end
  begin
     id 30
     name rthumb
     direction -0.707107 -6.34834e-011 0.707107   
     length 0.629289   
     axis -90 -45 -2.85299e-015   XYZ
    dof rx rz
    limits (-45.0 45.0)
           (-45.0 45.0)
  end
:hierarchy
  begin
    root lhipjoint rhipjoint lowerback
    lhipjoint lfemur
    lfemur ltibia
    ltibia lfoot
    lfoot ltoes
    rhipjoint rfemur
    rfemur rtibia
    rtibia rfoot
    rfoot rtoes
    lowerback upperback
    upperback thorax
    thorax lowerneck lclavicle rclavicle
    lowerneck upperneck
    upperneck head
    lclavicle lhumerus
    lhumerus lradius
    lradius lwrist
    lwrist lhand lthumb
    lhand lfingers
    rclavicle rhumerus
    rhumerus rradius
    rradius rwrist
    rwrist rhand rthumb
    rhand rfingers
  end

#!OML:ASF H:\GeneralSubjects\Female5\Project 1\Capture day 1\Session 1\Female5.ASF
:FULLY-SPECIFIED
:DEGREES
95
root -37.7143 15.7606 1.07436 -15.1652 88.427 -33.0566
lowerback 12.8083 0.523188 -5.91817
upperback -12.7975 0.278691 2.67731
thorax -22.2387 1.59596 6.39161
lowerneck -21.7498 1.22415 2.11176
upperneck 39.9333 3.13633 -1.53934
head 18.9551 1.81997 -0.256827
rclavicle -2.60905e-015 2.94201e-014
rhumerus -62.4071 20.8043 -88.6864
rradius 38.7845
rwrist -9.5172
rhand -28.7017 -17.4109
rfingers 7.12502
rthumb -2.06357 -47.3806
lclavicle -2.60905e-015 2.94201e-014
lhumerus -53.3658 -2.04443 82.4377
lradius 38.8604
lwrist -3.41875
lhand -24.9355 32.6599
lfingers 7.12502
lthumb 1.57384 62.6339
rfemur -32.2181 -0.375511 29.005
rtibia 45.0351
rfoot -20.8534 -10.3964
rtoes -36.9009
lfemur 5.5313 -29.1169 -33.9757
ltibia -3.73881
lfoot -39.8506 -11.4207
ltoes -12.5373
96
root -37.5424 15.7165 1.07509 -3.79287 88.4036 -22.1608
lowerback 12.9287 0.41654 -6.10088
upperback -12.5906 0.0351446 2.57749
thorax -21.9922 1.47859 6.4526
lowerneck -21.9246 1.4194 2.42291
upperneck 39.6459 3.37789 -1.8372
head 18.8534 1.8999 -0.405918
rclavicle 7.40473e-015 -1.31198e-014
rhumerus -62.2781 20.6321 -88.3727
rradius 38.5779
rwrist -9.36535
rhand -28.1817 -16.8466
rfingers 7.12502
rthumb -1.56137 -46.8206
lclavicle 7.40473e-015 -1.31198e-014
lhumerus -52.7124 -2.80356 83.1818
lradius 40.2981
lwrist -2.8989
lhand -25.2817 33.1142
lfingers 7.12502
lthumb 1.23952 63.0904
rfemur -35.4566 -0.886899 29.2628
rtibia 46.7245
rfoot -20.7261 -9.88177
rtoes -37.2953
lfemur 6.63556 -30.5623 -34.8405
ltibia -4.55488
lfoot -41.277 -10.5864
ltoes -14.8398
97
root -37.3598 15.6667 1.07855 4.76898 88.2685 -14.116
lowerback 13.4159 0.334321 -6.17316
upperback -12.5487 -0.162519 2.47557
thorax -22.2331 1.39776 6.44703
lowerneck -22.0509 1.56355 2.64099
upperneck 39.4189 3.5302 -2.00095
head 18.7679 1.95378 -0.492438
rclavicle 1.11195e-014 -1.39149e-014
rhumerus -62.5309 20.3447 -88.1071
rradius 38.487
rwrist -8.94959
rhand -27.4412 -17.5136
rfingers 7.12502
rthumb -0.846182 -47.4916
lclavicle 1.11195e-014 -1.39149e-014
lhumerus -52.3426 -3.619 83.8996
lradius 41.8528
lwrist -2.43716
lhand -25.5999 33.9426
lfingers 7.12502
lthumb 0.932148 63.9203
rfemur -38.6892 -0.984959 29.5793
rtibia 47.7785
rfoot -20.605 -10.0202
rtoes -38.401
lfemur 7.36303 -30.0271 -35.2907
ltibia -5.14062
lfoot -40.777 -11.2229
ltoes -15.659
98
root -37.1668 15.6121 1.08232 10.125 88.0997 -9.32624
lowerback 13.7859 0.251198 -6.14855
upperback -12.4856 -0.321054 2.41844
thorax -22.3712 1.31838 6.4236
lowerneck -22.183 1.80028 2.74128
upperneck 39.2392 3.84211 -2.05305
head 18.7132 2.07069 -0.467933
rclavicle 1.43373e-014 -3.29983e-014
rhumerus -62.8667 20.1597 -87.8648
rradius 38.483
rwrist -8.43143
rhand -26.7224 -19.419
rfingers 7.12502
rthumb -0.151952 -49.3987
lclavicle 1.43373e-014 -3.29983e-014
lhumerus -51.8428 -4.31949 84.598
lradius 43.613
lwrist -2.33171
lhand -25.1158 35.3173
lfingers 7.12502
lthumb 1.39969 65.2925
rfemur -41.8528 -0.862933 29.8553
rtibia 48.0773
rfoot -20.2372 -10.6447
rtoes -39.3774
lfemur 8.09816 -29.8514 -35.7123
ltibia -5.78039
lfoot -40.7609 -11.3576
ltoes -16.5806
99
root -36.9682 15.5573 1.08803 15.0193 87.9969 -5.07251
lowerback 14.2261 0.161672 -6.15178
upperback -12.4904 -0.488729 2.39916
thorax -22.6514 1.25721 6.47039
lowerneck -22.2202 2.06269 3.00201
upperneck 39.0869 4.24139 -2.3435
head 18.6687 2.21605 -0.565539
rclavicle 7.57867e-015 -1.90833e-014
rhumerus -63.3425 20.0129 -87.6414
rradius 38.3684
rwrist -8.30365
rhand -26.4016 -20.9603
rfingers 7.12502
rthumb 0.157846 -50.94
lclavicle 7.57867e-015 -1.90833e-014
lhumerus -51.4537 -4.95437 85.2901
lradius 45.6396
lwrist -2.44187
lhand -23.599 36.1008
lfingers 7.12502
lthumb 2.86461 66.0613
rfemur -44.975 -0.659647 29.9841
rtibia 47.8004
rfoot -19.8613 -11.3018
rtoes -40.2903
lfemur 9.55807 -33.9166 -37.0129
ltibia -6.48475
lfoot -44.6711 -8.05037
ltoes -19.5421
100
root -36.7573 15.4976 1.09943 20.4204 87.94 -0.290391
lowerback 14.6544 0.0700144 -6.20635
upperback -12.4358 -0.668668 2.4132
thorax -22.8394 1.19578 6.59001
lowerneck -22.3331 2.26983 3.29801
upperneck 38.866 4.58514 -2.78358
head 18.6129 2.31864 -0.751967
rclavicle 3.97589e-015 -3.57812e-015
rhumerus -63.4299 19.7744 -87.0659
rradius 38.1651
rwrist -9.34192
rhand -25.8689 -21.9871
rfingers 7.12502
rthumb 0.672336 -51.9658
lclavicle 3.97589e-015 -3.57812e-015
lhumerus -50.9429 -5.79042 86.1742
lradius 47.6365
lwrist -1.64441
lhand -22.4078 35.288
lfingers 7.12502
lthumb 4.01497 65.2299
rfemur -47.8558 -0.295891 29.9275
rtibia 47.035
rfoot -19.6752 -11.8788
rtoes -41.0273
lfemur 10.2851 -34.0477 -37.6168
ltibia -6.73451
lfoot -44.1102 -10.1313
ltoes -16.7035
101
root -36.5215 15.4271 1.1122 32.812 87.8043 11.6895
lowerback 14.8575 -0.0120243 -6.4941
upperback -12.1781 -0.900384 2.379
thorax -22.5761 1.10638 6.78948
lowerneck -22.554 2.45961 3.51194
upperneck 38.6302 4.94586 -3.26501
head 18.5819 2.40584 -0.937534
rclavicle 7.59109e-015 3.97569e-015
rhumerus -63.4054 19.7415 -86.7304
rradius 37.5788
rwrist -9.75931
rhand -26.2172 -22.0964
rfingers 7.12502
rthumb 0.335998 -52.0759
lclavicle 7.59109e-015 3.97569e-015
lhumerus -50.2272 -6.87087 87.2426
lradius 49.5402
lwrist -0.348203
lhand -20.3174 40.6127
lfingers 7.12502
lthumb 6.03336 70.5068
rfemur -50.3119 0.0385316 29.4005
rtibia 45.8967
rfoot -19.3216 -12.4156
rtoes -41.2887
lfemur 11.7745 -34.5235 -38.9752
ltibia -7.68702
lfoot -44.923 -7.85399
ltoes -17.9538
102
root -36.2735 15.3561 1.12969 43.9619 87.5095 22.4237
lowerback 14.981 -0.146073 -7.26281
upperback -11.9071 -1.26256 2.6541
thorax -22.2094 1.06955 7.67508
lowerneck -22.6593 2.7709 3.74637
upperneck 38.4036 5.63839 -4.05903
head 18.5695 2.58564 -1.19963
rclavicle 2.22142e-014 -9.93923e-015
rhumerus -63.4603 20.4265 -86.4087
rradius 36.8905
rwrist -10.4611
rhand -27.0212 -20.52
rfingers 7.12502
rthumb -0.440584 -50.4993
lclavicle 2.22142e-014 -9.93923e-015
lhumerus -49.5541 -7.17695 88.2411
lradius 51.3328
lwrist -0.427206
lhand -21.4556 39.6898
lfingers 7.12502
lthumb 4.93443 69.6124
rfemur -52.8021 0.444126 28.7275
rtibia 44.9255
rfoot -18.8864 -12.7177
rtoes -41.0585
lfemur 13.2147 -34.9406 -40.4516
ltibia -8.19054
lfoot -45.0665 -8.01062
ltoes -18.0185
103
root -36.0229 15.2903 1.15688 46.8889 87.2734 24.7143
lowerback 15.945 -0.0932518 -6.86457
upperback -12.1889 -1.2267 2.30657
thorax -23.2765 1.05844 7.07205
lowerneck -22.5867 2.79648 3.95774
upperneck 38.378 5.6372 -4.17263
head 18.5499 2.60167 -1.29183
rclavicle 2.10463e-014 -7.55382e-015
rhumerus -64.2123 19.3677 -86.0343
rradius 36.3107
rwrist -9.40444
rhand -26.0087 -19.6185
rfingers 7.12502
rthumb 0.537363 -49.5975
lclavicle 2.10463e-014 -7.55382e-015
lhumerus -49.5931 -8.82908 88.8152
lradius 53.0773
lwrist -1.221
lhand -26.2758 30.7685
lfingers 7.12502
lthumb 0.279347 60.7481
rfemur -55.5057 1.29053 28.1767
rtibia 44.2736
rfoot -18.5706 -12.8925
rtoes -40.882
lfemur 14.3163 -35.3035 -41.3292
ltibia -8.67071
lfoot -45.5577 -7.13417
ltoes -20.3019
104
root -35.7526 15.2221 1.18993 49.432 87.1539 26.648
lowerback 16.8736 -0.221426 -6.95893
upperback -12.4696 -1.47828 2.4456
thorax -24.2743 1.07054 7.44175
lowerneck -22.5422 3.0556 4.22652
upperneck 38.4972 6.15489 -4.62942
head 18.6839 2.78332 -1.44082
rclavicle -2.5345e-015 -3.22031e-014
rhumerus -65.2049 19.6953 -86.0524
rradius 35.8238
rwrist -9.01645
rhand -25.8154 -19.6936
rfingers 7.12502
rthumb 0.724034 -49.6721
lclavicle -2.5345e-015 -3.22031e-014
lhumerus -49.6608 -9.53032 89.4963
lradius 54.6952
lwrist -1.71511
lhand -23.9576 33.1271
lfingers 7.12502
lthumb 2.51827 63.092
rfemur -57.7629 2.33046 27.3573
rtibia 43.5065
rfoot -18.2736 -13.3037
rtoes -40.7922
lfemur 15.2156 -35.7572 -42.0713
ltibia -8.62709
lfoot -46.085 -7.46695
ltoes -19.4068
105
root -35.454 15.1514 1.22644 52.5978 87.1848 29.3517
lowerback 16.9846 -0.238159 -7.27374
upperback -12.3227 -1.53053 2.80842
thorax -24.1243 1.1358 8.08161
lowerneck -22.4299 3.15475 4.20456
upperneck 38.1874 6.55119 -5.23394
head 18.54 2.84612 -1.63269
rclavicle 2.68359e-015 0
rhumerus -65.5235 20.1082 -85.572
rradius 35.3538
rwrist -8.96842
rhand -26.0664 -19.7836
rfingers 7.12502
rthumb 0.481621 -49.7628
lclavicle 2.68359e-015 0
lhumerus -48.8996 -10.3148 90.5767
lradius 56.0959
lwrist -2.05144
lhand -23.3073 36.0394
lfingers 7.12502
lthumb 3.14637 65.996
rfemur -59.2438 3.34584 26.3898
rtibia 42.6241
rfoot -18.1693 -14.0095
rtoes -40.237
lfemur 16.4801 -36.2433 -42.921
ltibia -8.84355
lfoot -46.5674 -7.26497
ltoes -19.3353
106
root -35.1302 15.0833 1.26607 52.521 87.4241 28.8728
lowerback 17.0879 -0.357072 -7.11556
upperback -12.2108 -1.58787 3.1641
thorax -24.0245 1.12127 8.44088
lowerneck -22.3839 3.27827 4.2403
upperneck 38.0171 6.95962 -5.79731
head 18.5026 2.93056 -1.81206
rclavicle -1.18277e-014 2.38542e-014
rhumerus -65.8747 20.5439 -85.2851
rradius 34.884
rwrist -8.76597
rhand -26.7179 -18.6717
rfingers 7.12502
rthumb -0.147581 -48.6514
lclavicle -1.18277e-014 2.38542e-014
lhumerus -48.4356 -10.9795 91.3678
lradius 57.5166
lwrist -2.68205
lhand -23.6978 33.6659
lfingers 7.12502
lthumb 2.76918 63.6277
rfemur -60.1338 4.39442 25.6496
rtibia 41.7969
rfoot -15.8402 -15.469
rtoes -38.997
lfemur 17.3429 -36.7651 -43.3407
ltibia -8.50784
lfoot -46.9031 -7.02897
ltoes -21.6477
107
root -34.7843 15.0199 1.30833 49.0549 87.8496 25.0365
lowerback 16.4239 -0.462444 -6.85349
upperback -11.7559 -1.50527 3.71168
thorax -22.9421 1.07878 8.85081
lowerneck -22.4976 3.31449 3.98745
upperneck 37.7039 7.34488 -6.40749
head 18.4171 2.94973 -1.96255
rclavicle 1.79403e-014 -3.4191e-014
rhumerus -65.4635 21.1269 -84.555
rradius 34.3964
rwrist -8.4112
rhand -26.8112 -17.5293
rfingers 7.12502
rthumb -0.237712 -47.5089
lclavicle 1.79403e-014 -3.4191e-014
lhumerus -47.2685 -11.5572 92.1735
lradius 58.6172
lwrist -3.4904
lhand -24.9517 31.5286
lfingers 7.12502
lthumb 1.55819 61.5027
rfemur -60.5771 5.25 25.4901
rtibia 41.9456
rfoot -12.8868 -16.4781
rtoes -38.1174
lfemur 18.2756 -37.2809 -43.5423
ltibia -8.40669
lfoot -47.5594 -5.22209
ltoes -25.9806
108
root -34.417 14.9609 1.3535 41.5975 88.3567 17.2548
lowerback 17.3262 -0.59554 -5.61912
upperback -12.1364 -1.3809 3.68931
thorax -24.152 1.03028 8.13377
lowerneck -22.2366 3.23405 3.74845
upperneck 37.8417 7.28169 -6.20459
head 18.3957 2.93129 -1.8428
rclavicle -1.03865e-014 -3.97569e-015
rhumerus -66.5692 20.9159 -84.697
rradius 34.0169
rwrist -7.46112
rhand -25.1423 -19.0801
rfingers 7.12502
rthumb 1.37416 -49.0554
lclavicle -1.03865e-014 -3.97569e-015
lhumerus -47.9663 -12.7776 92.6704
lradius 59.8943
lwrist -4.1269
lhand -26.2104 29.5646
lfingers 7.12502
lthumb 0.342492 59.5441
rfemur -60.5202 5.64464 26.1667
rtibia 42.9986
rfoot -8.78109 -17.7877
rtoes -24.2353
lfemur 18.2289 -37.995 -43.465
ltibia -5.7774
lfoot -48.5517 -9.8081
ltoes -19.2764
109
root -34.0267 14.9039 1.40207 32.355 88.7697 7.74028
lowerback 17.342 -0.650221 -4.72017
upperback -12.1484 -1.17106 3.75685
thorax -24.2335 0.978078 7.61074
lowerneck -22.0161 3.09567 3.39173
upperneck 37.7401 7.19599 -6.14461
head 18.2503 2.86146 -1.77004
rclavicle -9.24349e-015 4.05521e-014
rhumerus -66.8893 21.0023 -84.7821
rradius 33.9676
rwrist -6.9914
rhand -26.3808 -16.864
rfingers 7.12502
rthumb 0.177956 -46.8436
lclavicle -9.24349e-015 4.05521e-014
lhumerus -48.1357 -13.8288 93.1905
lradius 61.1905
lwrist -4.60347
lhand -26.8776 28.1753
lfingers 7.12502
lthumb -0.301835 58.1548
rfemur -59.8167 5.88496 26.8709
rtibia 45.0089
rfoot -10.9978 -16.0399
rtoes -25.6138
lfemur 17.0365 -32.9019 -41.2093
ltibia -4.59818
lfoot -44.0423 3.99319
ltoes -44.972
